<svg xmlns="http://www.w3.org/2000/svg" xmlns:xlink="http://www.w3.org/1999/xlink" width="500" zoomAndPan="magnify" viewBox="0 0 375 374.999991" height="500" preserveAspectRatio="xMidYMid meet" version="1.0"><path fill="#fcd14e" d="M 253.210938 196.085938 C 253.210938 232.550781 223.648438 262.113281 187.1875 262.113281 C 150.722656 262.113281 121.160156 232.550781 121.160156 196.085938 C 121.160156 159.625 150.722656 130.0625 187.1875 130.0625 C 223.648438 130.0625 253.210938 159.625 253.210938 196.085938 Z M 253.210938 196.085938 " fill-opacity="1" fill-rule="nonzero"/><path fill="#cbab31" d="M 227.78125 107.714844 C 228.222656 107.78125 228.875 107.832031 229.628906 107.714844 C 230.453125 107.589844 231.332031 107.277344 233.527344 105.664062 C 235.121094 104.488281 236.164062 103.726562 237.425781 102.382812 C 238.664062 101.066406 239.460938 100.269531 240.089844 98.898438 C 240.546875 97.910156 240.726562 97.066406 240.902344 96.234375 C 241.046875 95.589844 241.21875 94.613281 241.316406 92.335938 C 241.425781 89.84375 241.351562 87.917969 241.316406 87.207031 C 241.234375 85.460938 241.101562 84.167969 240.902344 82.289062 C 240.714844 80.476562 240.679688 79.785156 240.492188 78.800781 C 240.320312 77.929688 240.1875 77.636719 239.675781 75.726562 C 238.886719 72.804688 238.921875 72.535156 239.058594 72.445312 C 239.558594 72.113281 241.414062 74.113281 242.339844 75.109375 C 242.722656 75.527344 243.808594 76.710938 246.03125 79.824219 C 247.304688 81.597656 247.929688 82.492188 248.488281 83.515625 C 249.355469 85.121094 249.824219 86.410156 250.332031 87.816406 C 251.078125 89.871094 251.515625 91.609375 251.769531 92.738281 C 251.902344 93.347656 252.324219 95.277344 252.582031 97.867188 C 252.824219 100.242188 252.566406 99.578125 252.789062 104.632812 C 252.871094 106.445312 252.941406 107.484375 252.582031 108.9375 C 252.457031 109.429688 252.226562 110.082031 251.769531 111.390625 C 251.265625 112.800781 250.941406 113.714844 250.539062 114.671875 C 249.796875 116.429688 249.0625 117.675781 248.28125 118.976562 C 247.734375 119.890625 247.339844 120.480469 245 123.894531 C 243.351562 126.308594 243.289062 126.503906 242.742188 127.175781 C 241.613281 128.574219 240.492188 129.660156 239.667969 130.457031 C 238.789062 131.300781 238.109375 131.898438 237.410156 132.507812 C 236.40625 133.386719 235.238281 134.355469 233.921875 135.378906 L 231.867188 136.8125 C 231.625 136.613281 231.277344 136.335938 230.847656 135.996094 C 229.871094 135.226562 229.226562 134.722656 228.390625 134.148438 C 228.003906 133.890625 227.449219 133.523438 226.75 133.128906 C 226.472656 132.921875 226.203125 132.714844 225.933594 132.507812 Z M 162.609375 125.582031 C 162.941406 125.492188 163.273438 125.410156 163.605469 125.320312 C 164.347656 125.023438 164.984375 124.820312 165.433594 124.675781 C 166.398438 124.371094 167.199219 124.183594 168.40625 123.90625 C 168.945312 123.777344 169.386719 123.679688 169.691406 123.617188 L 169.84375 121.117188 C 169.859375 119.449219 169.832031 117.933594 169.769531 116.597656 C 169.734375 115.675781 169.691406 114.769531 169.574219 113.5625 C 169.464844 112.414062 169.3125 110.871094 168.929688 109.113281 C 168.738281 108.273438 168.621094 108.101562 167.773438 105.304688 C 166.5625 101.34375 166.347656 100.664062 165.96875 99.675781 C 165.433594 98.25 164.921875 96.90625 164.007812 95.230469 C 163.515625 94.316406 162.992188 93.492188 162.207031 92.226562 C 161.46875 91.042969 161.101562 90.453125 160.789062 90.050781 C 159.875 88.859375 159.015625 88.273438 157.554688 87.207031 C 153.464844 84.222656 154.148438 84.449219 152.140625 83.148438 C 149.953125 81.742188 148.1875 80.871094 147.621094 80.59375 C 146.582031 80.089844 144.949219 79.347656 142.878906 78.648438 C 141.453125 78.164062 140.164062 77.726562 138.363281 77.402344 C 137.214844 77.195312 136.121094 77.140625 133.945312 77.027344 C 130.132812 76.820312 128.53125 76.925781 127.957031 76.972656 C 126.601562 77.070312 123.878906 77.277344 123.824219 77.878906 C 123.804688 78.039062 123.996094 78.234375 126.773438 79.445312 C 128.59375 80.234375 128.90625 80.316406 129.6875 80.71875 C 130.574219 81.183594 131.136719 81.589844 132.671875 82.574219 C 134.257812 83.597656 135.359375 84.296875 136.777344 85.324219 C 137.351562 85.746094 138.902344 86.886719 140.78125 88.527344 C 142.503906 90.023438 143.15625 90.765625 143.570312 91.277344 C 144.109375 91.941406 144.65625 92.605469 145.140625 93.582031 C 145.8125 94.925781 145.945312 96.054688 146.207031 97.839844 C 146.464844 99.667969 146.421875 100.949219 146.339844 102.929688 C 146.234375 105.644531 145.925781 106.535156 145.515625 107.25 C 145.140625 107.914062 144.691406 108.390625 144.367188 108.695312 Z M 117.261719 170.710938 C 117.40625 170.398438 117.539062 170.085938 117.683594 169.78125 C 117.917969 169.007812 118.148438 168.390625 118.320312 167.949219 C 118.6875 167.007812 119.039062 166.265625 119.574219 165.144531 C 119.808594 164.644531 120.015625 164.238281 120.148438 163.960938 L 118.292969 162.285156 C 117.003906 161.226562 115.800781 160.3125 114.71875 159.523438 C 113.972656 158.988281 113.238281 158.449219 112.214844 157.785156 C 111.25 157.160156 109.949219 156.308594 108.335938 155.519531 C 107.554688 155.140625 107.347656 155.125 104.632812 154.046875 C 100.789062 152.523438 100.117188 152.273438 99.101562 151.941406 C 97.660156 151.476562 96.28125 151.035156 94.40625 150.707031 C 93.382812 150.527344 92.417969 150.410156 90.9375 150.238281 C 89.558594 150.078125 88.867188 149.996094 88.355469 149.988281 C 86.859375 149.960938 85.863281 150.265625 84.117188 150.75 C 79.238281 152.085938 79.832031 151.691406 77.5625 152.453125 C 75.097656 153.285156 73.316406 154.121094 72.75 154.390625 C 71.703125 154.890625 70.113281 155.707031 68.269531 156.882812 C 67.003906 157.6875 65.847656 158.429688 64.476562 159.640625 C 63.597656 160.414062 62.882812 161.226562 61.429688 162.859375 C 58.894531 165.710938 57.980469 167.035156 57.65625 167.503906 C 56.894531 168.621094 55.363281 170.882812 55.792969 171.292969 C 55.90625 171.410156 56.175781 171.382812 58.855469 169.96875 C 60.605469 169.042969 60.863281 168.839844 61.671875 168.480469 C 62.585938 168.078125 63.257812 167.886719 64.980469 167.304688 C 66.761719 166.695312 68 166.273438 69.683594 165.808594 C 70.367188 165.621094 72.230469 165.117188 74.6875 164.671875 C 76.925781 164.257812 77.914062 164.214844 78.578125 164.203125 C 79.429688 164.195312 80.296875 164.1875 81.355469 164.410156 C 82.835938 164.722656 83.785156 165.324219 85.34375 166.230469 C 86.941406 167.160156 87.90625 168.003906 89.414062 169.296875 C 91.476562 171.078125 91.976562 171.867188 92.28125 172.636719 C 92.558594 173.347656 92.65625 173.992188 92.695312 174.441406 Z M 125.992188 238.0625 C 125.832031 237.757812 125.679688 237.453125 125.519531 237.148438 C 125.0625 236.484375 124.71875 235.921875 124.488281 235.515625 C 123.976562 234.636719 123.617188 233.902344 123.070312 232.78125 C 122.828125 232.289062 122.632812 231.878906 122.507812 231.601562 L 120.03125 232.003906 C 118.402344 232.351562 116.941406 232.71875 115.648438 233.078125 C 114.761719 233.320312 113.882812 233.5625 112.726562 233.949219 C 111.632812 234.308594 110.164062 234.800781 108.53125 235.570312 C 107.753906 235.9375 107.609375 236.089844 105.082031 237.550781 C 101.496094 239.613281 100.878906 239.972656 99.988281 240.5625 C 98.71875 241.40625 97.523438 242.203125 96.089844 243.46875 C 95.3125 244.148438 94.621094 244.839844 93.5625 245.886719 C 92.578125 246.863281 92.085938 247.359375 91.753906 247.753906 C 90.792969 248.910156 90.417969 249.875 89.699219 251.542969 C 87.703125 256.195312 87.765625 255.476562 86.949219 257.726562 C 86.0625 260.175781 85.605469 262.09375 85.460938 262.703125 C 85.199219 263.832031 84.84375 265.589844 84.617188 267.757812 C 84.464844 269.253906 84.320312 270.617188 84.410156 272.4375 C 84.464844 273.601562 84.652344 274.679688 85.03125 276.828125 C 85.675781 280.59375 86.140625 282.136719 86.3125 282.683594 C 86.714844 283.980469 87.523438 286.582031 88.113281 286.511719 C 88.273438 286.492188 88.417969 286.257812 88.984375 283.28125 C 89.351562 281.335938 89.351562 281.007812 89.574219 280.15625 C 89.835938 279.1875 90.105469 278.550781 90.722656 276.839844 C 91.359375 275.0625 91.796875 273.835938 92.488281 272.230469 C 92.765625 271.578125 93.535156 269.8125 94.710938 267.613281 C 95.785156 265.605469 96.359375 264.800781 96.773438 264.28125 C 97.300781 263.609375 97.828125 262.925781 98.664062 262.238281 C 99.828125 261.277344 100.894531 260.902344 102.582031 260.257812 C 104.300781 259.59375 105.566406 259.359375 107.511719 258.992188 C 110.191406 258.488281 111.113281 258.589844 111.910156 258.832031 C 112.648438 259.054688 113.203125 259.378906 113.570312 259.628906 Z M 179.871094 270.296875 C 179.539062 270.230469 179.199219 270.160156 178.867188 270.097656 C 178.070312 270.035156 177.40625 269.953125 176.949219 269.882812 C 175.945312 269.730469 175.140625 269.558594 173.929688 269.292969 C 173.390625 269.175781 172.953125 269.066406 172.648438 268.996094 L 171.417969 271.183594 C 170.675781 272.671875 170.046875 274.050781 169.527344 275.277344 C 169.167969 276.121094 168.8125 276.964844 168.390625 278.101562 C 167.988281 279.1875 167.457031 280.640625 167.046875 282.394531 C 166.847656 283.238281 166.882812 283.445312 166.4375 286.332031 C 165.808594 290.417969 165.710938 291.125 165.613281 292.183594 C 165.476562 293.699219 165.351562 295.132812 165.449219 297.042969 C 165.503906 298.082031 165.601562 299.050781 165.765625 300.527344 C 165.917969 301.910156 165.988281 302.597656 166.09375 303.101562 C 166.410156 304.570312 166.921875 305.476562 167.78125 307.070312 C 170.171875 311.535156 169.652344 311.042969 170.898438 313.078125 C 172.261719 315.292969 173.472656 316.851562 173.867188 317.34375 C 174.582031 318.25 175.738281 319.621094 177.289062 321.152344 C 178.367188 322.210938 179.34375 323.171875 180.824219 324.226562 C 181.773438 324.910156 182.722656 325.4375 184.640625 326.488281 C 187.984375 328.324219 189.480469 328.925781 190.011719 329.132812 C 191.273438 329.625 193.808594 330.617188 194.125 330.109375 C 194.203125 329.964844 194.125 329.714844 192.144531 327.417969 C 190.851562 325.921875 190.59375 325.714844 190.074219 325.007812 C 189.472656 324.199219 189.148438 323.589844 188.191406 322.039062 C 187.195312 320.4375 186.515625 319.324219 185.6875 317.785156 C 185.347656 317.15625 184.453125 315.453125 183.464844 313.167969 C 182.570312 311.070312 182.300781 310.121094 182.148438 309.484375 C 181.953125 308.648438 181.746094 307.816406 181.726562 306.722656 C 181.699219 305.214844 182.078125 304.148438 182.613281 302.429688 C 183.171875 300.671875 183.769531 299.535156 184.703125 297.785156 C 185.976562 295.382812 186.640625 294.71875 187.320312 294.246094 C 187.949219 293.816406 188.558594 293.582031 188.980469 293.449219 Z M 239.730469 249.480469 C 239.46875 249.707031 239.210938 249.921875 238.949219 250.144531 C 238.402344 250.738281 237.929688 251.195312 237.585938 251.515625 C 236.84375 252.207031 236.207031 252.726562 235.238281 253.507812 C 234.808594 253.855469 234.449219 254.132812 234.207031 254.320312 L 235.148438 256.644531 C 235.859375 258.148438 236.539062 259.503906 237.175781 260.675781 C 237.613281 261.492188 238.042969 262.289062 238.671875 263.332031 C 239.273438 264.316406 240.070312 265.644531 241.183594 267.058594 C 241.71875 267.742188 241.898438 267.839844 243.878906 269.992188 C 246.683594 273.027344 247.179688 273.546875 247.949219 274.285156 C 249.050781 275.332031 250.101562 276.328125 251.640625 277.4375 C 252.484375 278.046875 253.308594 278.566406 254.5625 279.367188 C 255.738281 280.109375 256.320312 280.488281 256.777344 280.710938 C 258.121094 281.382812 259.144531 281.542969 260.929688 281.867188 C 265.902344 282.78125 265.195312 282.878906 267.570312 283.175781 C 270.152344 283.5 272.125 283.515625 272.75 283.515625 C 273.90625 283.515625 275.699219 283.472656 277.871094 283.210938 C 279.355469 283.03125 280.71875 282.863281 282.476562 282.367188 C 283.597656 282.054688 284.609375 281.632812 286.617188 280.792969 C 290.140625 279.320312 291.539062 278.53125 292.039062 278.246094 C 293.214844 277.5625 295.582031 276.203125 295.367188 275.636719 C 295.3125 275.484375 295.0625 275.394531 292.03125 275.503906 C 290.050781 275.574219 289.726562 275.644531 288.847656 275.621094 C 287.84375 275.582031 287.164062 275.457031 285.363281 275.242188 C 283.488281 275.019531 282.191406 274.855469 280.476562 274.542969 C 279.777344 274.417969 277.886719 274.058594 275.476562 273.40625 C 273.28125 272.804688 272.367188 272.417969 271.765625 272.140625 C 270.996094 271.78125 270.207031 271.414062 269.34375 270.753906 C 268.152344 269.828125 267.550781 268.878906 266.539062 267.382812 C 265.507812 265.847656 264.996094 264.675781 264.207031 262.855469 C 263.125 260.355469 263.015625 259.429688 263.078125 258.597656 C 263.132812 257.835938 263.332031 257.21875 263.492188 256.796875 Z M 260.675781 187.9375 C 260.6875 188.28125 260.695312 188.621094 260.703125 188.960938 C 260.820312 189.757812 260.890625 190.414062 260.929688 190.878906 C 261.007812 191.890625 261.007812 192.714844 261.019531 193.953125 C 261.019531 194.5 261.019531 194.957031 261.019531 195.261719 L 263.421875 195.96875 C 265.042969 196.363281 266.519531 196.667969 267.839844 196.902344 C 268.746094 197.0625 269.640625 197.234375 270.851562 197.386719 C 271.988281 197.539062 273.53125 197.734375 275.332031 197.746094 C 276.191406 197.753906 276.390625 197.671875 279.304688 197.46875 C 283.425781 197.171875 284.144531 197.109375 285.191406 196.964844 C 286.699219 196.757812 288.125 196.5625 289.960938 196.042969 C 290.957031 195.765625 291.878906 195.441406 293.296875 194.957031 C 294.613281 194.507812 295.265625 194.277344 295.734375 194.0625 C 297.09375 193.433594 297.859375 192.726562 299.230469 191.535156 C 303.046875 188.207031 302.679688 188.828125 304.390625 187.152344 C 306.246094 185.332031 307.492188 183.796875 307.886719 183.3125 C 308.613281 182.410156 309.6875 180.984375 310.835938 179.128906 C 311.625 177.847656 312.34375 176.679688 313.050781 175.003906 C 313.507812 173.929688 313.804688 172.878906 314.402344 170.78125 C 315.453125 167.109375 315.703125 165.523438 315.792969 164.957031 C 315.992188 163.613281 316.402344 160.914062 315.828125 160.726562 C 315.675781 160.671875 315.445312 160.816406 313.652344 163.253906 C 312.476562 164.847656 312.332031 165.144531 311.761719 165.808594 C 311.105469 166.570312 310.585938 167.027344 309.285156 168.300781 C 307.941406 169.625 307.007812 170.542969 305.691406 171.6875 C 305.152344 172.15625 303.691406 173.417969 301.683594 174.886719 C 299.847656 176.234375 298.976562 176.707031 298.386719 176.996094 C 297.625 177.371094 296.84375 177.757812 295.785156 178.015625 C 294.324219 178.375 293.195312 178.25 291.402344 178.105469 C 289.566406 177.953125 288.320312 177.621094 286.410156 177.101562 C 283.785156 176.394531 282.988281 175.902344 282.378906 175.335938 C 281.8125 174.816406 281.453125 174.277344 281.230469 173.894531 Z M 176.941406 122.074219 L 179.601562 122.074219 C 181.359375 122.058594 183.746094 122.050781 186.578125 122.074219 C 190 122.113281 191.765625 122.128906 193.953125 122.28125 C 196.03125 122.425781 198.257812 122.578125 201.132812 123.097656 C 203.160156 123.464844 204.871094 123.957031 208.3125 124.945312 C 213.761719 126.503906 215.484375 127.292969 216.515625 127.8125 C 218.03125 128.574219 219.222656 129.328125 220 129.863281 L 220.621094 126.378906 L 221.03125 120.839844 C 221.257812 119.269531 221.523438 117.011719 221.652344 114.277344 C 221.820312 110.421875 221.894531 108.460938 221.238281 106.488281 C 220.996094 105.753906 220.65625 104.992188 217.339844 100.339844 C 215.3125 97.5 214.300781 96.082031 213.441406 95.007812 C 208.996094 89.449219 206.988281 90.03125 203.390625 85.371094 C 200.558594 81.6875 198.066406 78.449219 197.449219 73.683594 C 197.34375 72.859375 197.109375 70.617188 198.675781 64.253906 C 200.828125 55.523438 202.730469 53.800781 204.011719 48.261719 C 205.527344 41.738281 204.675781 36.402344 204.011719 32.273438 C 203.3125 27.878906 201.976562 19.5 195.808594 12.175781 C 191.570312 7.136719 186.03125 3.769531 185.152344 4.59375 C 184.523438 5.175781 186.628906 7.558594 188.636719 13.414062 C 190.046875 17.527344 190.601562 19.570312 190.484375 22.234375 C 190.351562 25.226562 189.222656 27.574219 187.410156 31.660156 C 186.40625 33.929688 185.070312 36.476562 177.980469 46.425781 C 176.386719 48.664062 173.050781 53.308594 169.160156 59.546875 C 167.414062 62.351562 166.121094 64.566406 165.675781 67.75 C 165.207031 71.054688 165.851562 73.976562 166.292969 75.949219 C 166.4375 76.613281 167.007812 79.195312 168.550781 82.511719 C 170.363281 86.402344 171.507812 86.921875 173.679688 91.125 C 174.941406 93.574219 176.347656 96.367188 176.960938 100.140625 C 177.378906 102.761719 177.128906 104.078125 176.960938 108.34375 C 176.851562 111.058594 176.769531 114.984375 176.960938 119.828125 L 176.960938 122.074219 Z M 123.222656 157.175781 L 124.882812 155.097656 C 125.964844 153.707031 127.445312 151.84375 129.230469 149.648438 C 131.398438 146.984375 132.507812 145.621094 133.988281 144 C 135.394531 142.457031 136.902344 140.820312 139.105469 138.898438 C 140.65625 137.546875 142.109375 136.515625 145.023438 134.4375 C 149.636719 131.148438 151.324219 130.296875 152.382812 129.8125 C 153.921875 129.101562 155.257812 128.644531 156.15625 128.367188 L 153.816406 125.714844 L 149.746094 121.941406 C 148.660156 120.785156 147.058594 119.171875 145.003906 117.371094 C 142.101562 114.832031 140.613281 113.550781 138.660156 112.835938 C 137.933594 112.566406 137.125 112.351562 131.425781 112.046875 C 127.945312 111.859375 126.199219 111.769531 124.828125 111.769531 C 117.710938 111.777344 116.914062 113.714844 111.03125 113.613281 C 106.382812 113.535156 102.304688 113.460938 98.1875 110.980469 C 97.480469 110.550781 95.582031 109.328125 91.582031 104.140625 C 86.097656 97.015625 85.9375 94.460938 82.402344 90.003906 C 78.246094 84.753906 73.539062 82.089844 69.898438 80.039062 C 66.027344 77.851562 58.640625 73.664062 49.078125 73.925781 C 42.488281 74.09375 36.414062 76.335938 36.503906 77.527344 C 36.566406 78.386719 39.746094 78.21875 45.5625 80.296875 C 49.660156 81.757812 51.605469 82.601562 53.605469 84.347656 C 55.863281 86.320312 56.992188 88.660156 59.0625 92.632812 C 60.210938 94.835938 61.367188 97.460938 64.726562 109.214844 C 65.480469 111.859375 67.03125 117.359375 69.488281 124.289062 C 70.589844 127.410156 71.511719 129.792969 73.726562 132.132812 C 76.023438 134.5625 78.710938 135.878906 80.523438 136.765625 C 81.132812 137.0625 83.507812 138.226562 87.054688 139.097656 C 91.222656 140.109375 92.34375 139.527344 96.988281 140.460938 C 99.695312 140.996094 102.75 141.644531 106.085938 143.515625 C 108.390625 144.816406 109.265625 145.828125 112.496094 148.625 C 114.546875 150.402344 117.566406 152.910156 121.464844 155.789062 Z M 117.359375 223.191406 L 116.769531 220.59375 C 116.355469 218.882812 115.820312 216.558594 115.21875 213.796875 C 114.492188 210.445312 114.117188 208.726562 113.777344 206.554688 C 113.453125 204.496094 113.105469 202.296875 112.976562 199.375 C 112.886719 197.324219 112.988281 195.539062 113.183594 191.972656 C 113.488281 186.316406 113.882812 184.460938 114.160156 183.339844 C 114.566406 181.691406 115.039062 180.363281 115.378906 179.488281 L 111.847656 179.664062 L 106.363281 180.5 C 104.777344 180.625 102.519531 180.867188 99.828125 181.359375 C 96.039062 182.050781 94.101562 182.417969 92.328125 183.492188 C 91.664062 183.898438 90.992188 184.390625 87.199219 188.65625 C 84.886719 191.265625 83.722656 192.5625 82.871094 193.640625 C 78.441406 199.207031 79.453125 201.042969 75.707031 205.578125 C 72.75 209.164062 70.152344 212.3125 65.632812 213.976562 C 64.855469 214.265625 62.71875 214.992188 56.167969 214.875 C 47.179688 214.722656 45.070312 213.25 39.386719 213.234375 C 32.683594 213.214844 27.683594 215.234375 23.800781 216.792969 C 19.679688 218.449219 11.808594 221.625 6.035156 229.261719 C 2.066406 234.523438 0.0195312 240.660156 1.015625 241.34375 C 1.722656 241.828125 3.578125 239.238281 8.832031 235.984375 C 12.523438 233.699219 14.398438 232.695312 17.015625 232.21875 C 19.964844 231.679688 22.5 232.261719 26.894531 233.113281 C 29.332031 233.589844 32.109375 234.324219 43.386719 239.023438 C 45.933594 240.078125 51.191406 242.292969 58.140625 244.695312 C 61.269531 245.769531 63.707031 246.542969 66.914062 246.273438 C 70.25 245.996094 72.949219 244.714844 74.777344 243.84375 C 75.386719 243.558594 77.777344 242.417969 80.675781 240.1875 C 84.070312 237.5625 84.3125 236.316406 87.925781 233.277344 C 90.03125 231.5 92.441406 229.503906 95.992188 228.070312 C 98.449219 227.074219 99.785156 227.027344 103.988281 226.238281 C 106.660156 225.746094 110.503906 224.949219 115.183594 223.683594 Z M 165.574219 268.664062 L 163.171875 267.507812 C 161.578125 266.761719 159.425781 265.734375 156.890625 264.488281 C 153.816406 262.972656 152.238281 262.183594 150.328125 261.097656 C 148.519531 260.066406 146.582031 258.972656 144.214844 257.246094 C 142.558594 256.035156 141.222656 254.84375 138.550781 252.46875 C 134.320312 248.703125 133.109375 247.242188 132.410156 246.316406 C 131.371094 244.972656 130.636719 243.773438 130.160156 242.957031 L 128.089844 245.832031 L 125.320312 250.648438 C 124.433594 251.964844 123.214844 253.882812 121.921875 256.292969 C 120.09375 259.691406 119.179688 261.429688 118.910156 263.492188 C 118.8125 264.261719 118.785156 265.097656 119.753906 270.726562 C 120.347656 274.160156 120.640625 275.878906 120.957031 277.214844 C 122.550781 284.152344 124.613281 284.492188 125.824219 290.257812 C 126.78125 294.808594 127.617188 298.796875 126.109375 303.371094 C 125.851562 304.160156 125.085938 306.28125 120.910156 311.328125 C 115.183594 318.257812 112.726562 318.992188 109.167969 323.421875 C 104.972656 328.648438 103.433594 333.820312 102.230469 337.835938 C 100.957031 342.09375 98.527344 350.222656 100.90625 359.5 C 102.535156 365.882812 106.066406 371.3125 107.214844 370.964844 C 108.039062 370.710938 107.167969 367.648438 107.894531 361.507812 C 108.40625 357.1875 108.800781 355.105469 110.054688 352.757812 C 111.472656 350.113281 113.507812 348.5 116.921875 345.597656 C 118.8125 343.984375 121.117188 342.28125 131.828125 336.390625 C 134.238281 335.066406 139.257812 332.332031 145.460938 328.394531 C 148.257812 326.628906 150.375 325.195312 152.15625 322.515625 C 154.011719 319.738281 154.703125 316.824219 155.160156 314.859375 C 155.3125 314.199219 155.921875 311.625 155.976562 307.96875 C 156.039062 303.675781 155.222656 302.714844 155.097656 297.984375 C 155.027344 295.222656 154.960938 292.101562 156.054688 288.429688 C 156.808594 285.890625 157.605469 284.808594 159.613281 281.042969 C 160.886719 278.648438 162.664062 275.144531 164.597656 270.699219 Z M 228.652344 258.839844 L 226.25 259.996094 C 224.671875 260.777344 222.527344 261.816406 219.964844 263.015625 C 216.863281 264.46875 215.269531 265.210938 213.226562 266.039062 C 211.289062 266.816406 209.226562 267.640625 206.402344 268.414062 C 204.421875 268.960938 202.65625 269.253906 199.132812 269.863281 C 193.550781 270.824219 191.660156 270.859375 190.503906 270.832031 C 188.800781 270.804688 187.410156 270.636719 186.46875 270.5 L 187.429688 273.90625 L 189.464844 279.070312 C 189.9375 280.585938 190.683594 282.734375 191.757812 285.246094 C 193.273438 288.796875 194.0625 290.597656 195.503906 292.085938 C 196.042969 292.640625 196.679688 293.1875 201.679688 295.9375 C 204.738281 297.617188 206.261719 298.457031 207.507812 299.050781 C 213.925781 302.125 215.484375 300.726562 220.738281 303.371094 C 224.886719 305.457031 228.535156 307.296875 231.160156 311.320312 C 231.617188 312.019531 232.792969 313.9375 234.144531 320.355469 C 235.992188 329.148438 235.03125 331.53125 236.277344 337.082031 C 237.75 343.617188 240.832031 348.050781 243.214844 351.496094 C 245.753906 355.152344 250.59375 362.117188 259.324219 366.042969 C 265.328125 368.738281 271.78125 369.367188 272.222656 368.246094 C 272.535156 367.449219 269.597656 366.210938 265.257812 361.820312 C 262.199219 358.726562 260.8125 357.125 259.773438 354.675781 C 258.589844 351.914062 258.597656 349.316406 258.453125 344.84375 C 258.375 342.359375 258.472656 339.492188 260.542969 327.453125 C 261.007812 324.738281 261.996094 319.109375 262.792969 311.804688 C 263.152344 308.515625 263.347656 305.96875 262.371094 302.902344 C 261.359375 299.714844 259.511719 297.375 258.257812 295.777344 C 257.835938 295.25 256.203125 293.160156 253.382812 290.847656 C 250.066406 288.125 248.800781 288.160156 245.027344 285.316406 C 242.820312 283.660156 240.347656 281.75 238.160156 278.613281 C 236.644531 276.445312 236.296875 275.144531 234.601562 271.226562 C 233.527344 268.734375 231.886719 265.160156 229.617188 260.882812 Z M 261.601562 202.800781 L 261.007812 205.398438 C 260.632812 207.121094 260.113281 209.441406 259.457031 212.195312 C 258.660156 215.527344 258.25 217.242188 257.613281 219.347656 C 257.011719 221.347656 256.367188 223.46875 255.21875 226.160156 C 254.402344 228.050781 253.542969 229.609375 251.820312 232.746094 C 249.085938 237.714844 247.941406 239.210938 247.195312 240.105469 C 246.113281 241.414062 245.117188 242.402344 244.417969 243.046875 L 247.679688 244.417969 L 252.988281 246.050781 C 254.464844 246.621094 256.609375 247.382812 259.242188 248.109375 C 262.964844 249.132812 264.863281 249.644531 266.933594 249.445312 C 267.703125 249.375 268.527344 249.214844 273.800781 247.015625 C 277.019531 245.671875 278.632812 245 279.867188 244.410156 C 286.277344 241.308594 286.152344 239.21875 291.503906 236.753906 C 295.722656 234.808594 299.425781 233.105469 304.222656 233.554688 C 305.046875 233.632812 307.285156 233.902344 313.140625 236.851562 C 321.171875 240.894531 322.433594 243.125 327.542969 245.609375 C 333.578125 248.53125 338.964844 248.890625 343.132812 249.167969 C 347.570312 249.464844 356.039062 250.019531 364.546875 245.644531 C 370.40625 242.632812 374.917969 237.980469 374.316406 236.941406 C 373.886719 236.199219 371.089844 237.730469 364.949219 238.375 C 360.628906 238.832031 358.503906 238.921875 355.941406 238.214844 C 353.046875 237.417969 351.019531 235.792969 347.433594 233.113281 C 345.445312 231.625 343.265625 229.761719 335.136719 220.636719 C 333.308594 218.585938 329.523438 214.300781 324.308594 209.121094 C 321.960938 206.789062 320.097656 205.042969 317.09375 203.894531 C 313.964844 202.703125 310.980469 202.683594 308.964844 202.667969 C 308.28125 202.667969 305.636719 202.640625 302.0625 203.402344 C 297.867188 204.296875 297.105469 205.308594 292.523438 206.484375 C 289.851562 207.164062 286.816406 207.925781 282.996094 207.675781 C 280.351562 207.507812 279.125 206.96875 275 205.847656 C 272.382812 205.140625 268.566406 204.191406 263.804688 203.292969 Z M 237.410156 140.675781 L 239.066406 142.753906 C 240.179688 144.117188 241.675781 145.972656 243.414062 148.203125 C 245.519531 150.902344 246.605469 152.292969 247.859375 154.101562 C 249.042969 155.8125 250.316406 157.644531 251.695312 160.222656 C 252.664062 162.035156 253.355469 163.683594 254.726562 166.984375 C 256.902344 172.207031 257.359375 174.054688 257.59375 175.183594 C 257.945312 176.851562 258.097656 178.242188 258.167969 179.191406 L 261.277344 177.496094 L 265.859375 174.367188 C 267.230469 173.5625 269.15625 172.371094 271.371094 170.757812 C 274.488281 168.488281 276.078125 167.324219 277.207031 165.574219 C 277.628906 164.921875 278.023438 164.1875 279.589844 158.691406 C 280.550781 155.339844 281.023438 153.664062 281.328125 152.320312 C 282.898438 145.382812 281.195312 144.171875 282.601562 138.453125 C 283.714844 133.933594 284.691406 129.980469 288.035156 126.511719 C 288.605469 125.914062 290.222656 124.335938 296.171875 121.59375 C 304.339844 117.835938 306.875 118.238281 312 115.792969 C 318.050781 112.90625 321.683594 108.910156 324.503906 105.824219 C 327.5 102.535156 333.21875 96.269531 335.101562 86.886719 C 336.398438 80.421875 335.574219 73.996094 334.382812 73.816406 C 333.53125 73.691406 332.984375 76.828125 329.660156 82.035156 C 327.320312 85.703125 326.066406 87.414062 323.914062 88.972656 C 321.484375 90.738281 318.957031 91.3125 314.621094 92.453125 C 312.21875 93.078125 309.394531 93.625 297.195312 94.28125 C 294.441406 94.433594 288.742188 94.71875 281.4375 95.570312 C 278.15625 95.957031 275.621094 96.324219 272.851562 97.957031 C 269.972656 99.660156 268.089844 101.980469 266.816406 103.546875 C 266.394531 104.078125 264.730469 106.128906 263.097656 109.402344 C 261.179688 113.246094 261.503906 114.464844 259.558594 118.777344 C 258.425781 121.296875 257.128906 124.136719 254.546875 126.96875 C 252.761719 128.933594 251.578125 129.550781 248.136719 132.078125 C 245.949219 133.683594 242.832031 136.078125 239.164062 139.242188 Z M 237.410156 140.675781 " fill-opacity="1" fill-rule="nonzero"/></svg>